<?xml version="1.0"?>
<svg xmlns="http://www.w3.org/2000/svg" viewBox="0 0 16 16">
    <path style="line-height:normal;text-indent:0;text-align:start;text-decoration-line:none;text-decoration-style:solid;text-decoration-color:#000;text-transform:none;block-progression:tb;isolation:auto;mix-blend-mode:normal" d="M 3.5 2 C 2.6774686 2 2 2.6774686 2 3.5 L 2 12.5 C 2 13.322531 2.6774686 14 3.5 14 L 12.5 14 C 13.322531 14 14 13.322531 14 12.5 L 14 3.5 C 14 2.6774686 13.322531 2 12.5 2 L 3.5 2 z M 3.5 3 L 12.5 3 C 12.781469 3 13 3.2185314 13 3.5 L 13 12.5 C 13 12.781469 12.781469 13 12.5 13 L 3.5 13 C 3.2185314 13 3 12.781469 3 12.5 L 3 3.5 C 3 3.2185314 3.2185314 3 3.5 3 z M 8 4 C 7.4534686 4 7 4.4534686 7 5 L 7 7 L 5 7 C 4.448 7 4 7.448 4 8 L 4 9 L 4 12 L 9 12 L 9 9 L 12 9 L 12 8.5 L 12 5 C 12 4.4534686 11.546531 4 11 4 L 8 4 z M 8 6 L 11 6 L 11 8 L 8 8 L 8 6 z M 5 9 L 7 9 L 7.5 9 L 8 9 L 8 11 L 5 11 L 5 9 z" font-weight="400" font-family="sans-serif" white-space="normal" overflow="visible"/>
</svg>
